<svg xmlns="http://www.w3.org/2000/svg" xmlns:xlink="http://www.w3.org/1999/xlink" width="47.945" height="57.612" viewBox="0 0 47.945 57.612">
  <defs>
    <style>
      .cls-1 {
        fill: url(#linear-gradient);
      }

      .cls-2 {
        fill: url(#linear-gradient-2);
      }

      .cls-3 {
        filter: url(#패스_80);
      }
    </style>
    <linearGradient id="linear-gradient" x1="1.157" y1="1.669" x2="0.053" y2="0.21" gradientUnits="objectBoundingBox">
      <stop offset="0" stop-color="#363549"/>
      <stop offset="0.799" stop-color="#822b6d"/>
      <stop offset="0.957" stop-color="#8b2a72"/>
      <stop offset="1" stop-color="#8b2a72"/>
    </linearGradient>
    <filter id="패스_80" x="0" y="0" width="47.945" height="57.612" filterUnits="userSpaceOnUse">
      <feOffset dy="3" input="SourceAlpha"/>
      <feGaussianBlur stdDeviation="3" result="blur"/>
      <feFlood flood-opacity="0.161"/>
      <feComposite operator="in" in2="blur"/>
      <feComposite in="SourceGraphic"/>
    </filter>
    <linearGradient id="linear-gradient-2" x1="-0.106" y1="0.531" x2="0.952" y2="0.388" gradientUnits="objectBoundingBox">
      <stop offset="0" stop-color="#fceed3" stop-opacity="0"/>
      <stop offset="0.082" stop-color="#fceed3" stop-opacity="0.204"/>
      <stop offset="0.204" stop-color="#fceed3" stop-opacity="0.482"/>
      <stop offset="0.314" stop-color="#fceed3" stop-opacity="0.706"/>
      <stop offset="0.408" stop-color="#fceed3" stop-opacity="0.867"/>
      <stop offset="0.482" stop-color="#fceed3" stop-opacity="0.965"/>
      <stop offset="0.527" stop-color="#fceed3"/>
      <stop offset="0.562" stop-color="#fceed3" stop-opacity="0.902"/>
      <stop offset="0.684" stop-color="#fceed3" stop-opacity="0.588"/>
      <stop offset="0.793" stop-color="#fceed3" stop-opacity="0.333"/>
      <stop offset="0.884" stop-color="#fceed3" stop-opacity="0.153"/>
      <stop offset="0.954" stop-color="#fceed3" stop-opacity="0.043"/>
      <stop offset="0.995" stop-color="#fceed3" stop-opacity="0"/>
    </linearGradient>
  </defs>
  <g id="그룹_75" data-name="그룹 75" transform="translate(8.635 5.548)">
    <g class="cls-3" transform="matrix(1, 0, 0, 1, -8.63, -5.55)">
      <path id="패스_80-2" data-name="패스 80" class="cls-1" d="M2633.153,217.532l-23-23.821-6.941,39.612Z" transform="translate(-2594.21 -187.71)"/>
    </g>
    <path id="패스_81" data-name="패스 81" class="cls-2" d="M2603.071,233.553a.36.36,0,0,1-.214-.07.367.367,0,0,1-.143-.359l6.942-39.612a.363.363,0,0,1,.618-.191l23.008,23.822a.365.365,0,0,1-.092.578l-29.95,15.791A.362.362,0,0,1,2603.071,233.553Zm7.176-39.211-6.69,38.178,28.866-15.219Z" transform="translate(-2602.708 -193.211)"/>
  </g>
</svg>
