<?xml version="1.0" encoding="utf-8"?>
<!-- Generator: Adobe Illustrator 24.3.0, SVG Export Plug-In . SVG Version: 6.00 Build 0)  -->
<svg version="1.1" id="그룹_165" xmlns="http://www.w3.org/2000/svg" xmlns:xlink="http://www.w3.org/1999/xlink" x="0px" y="0px"
	 viewBox="0 0 1206 232" style="enable-background:new 0 0 1206 232;" xml:space="preserve">
<style type="text/css">
	.st0{fill:url(#패스_84_1_);}
	.st1{fill:url(#패스_85_1_);}
	.st2{fill:none;stroke:#707070;stroke-width:0.75;stroke-linecap:round;stroke-linejoin:round;}
</style>
<linearGradient id="패스_84_1_" gradientUnits="userSpaceOnUse" x1="-355.3713" y1="656.6301" x2="-354.9733" y2="651.9281" gradientTransform="matrix(1203.2859 0 0 -229.2841 428015.125 150217.9844)">
	<stop  offset="7.400000e-02" style="stop-color:#8B2A72"/>
	<stop  offset="0.219" style="stop-color:#722D65;stop-opacity:0.706"/>
	<stop  offset="0.372" style="stop-color:#5C305B;stop-opacity:0.455"/>
	<stop  offset="0.527" style="stop-color:#4B3253;stop-opacity:0.255"/>
	<stop  offset="0.683" style="stop-color:#3F334D;stop-opacity:0.114"/>
	<stop  offset="0.84" style="stop-color:#38344A;stop-opacity:2.700000e-02"/>
	<stop  offset="1" style="stop-color:#363549;stop-opacity:0"/>
</linearGradient>
<path id="패스_84" class="st0" d="M1162.5,230.6l42.2-229.3H43.6L1.4,230.6L1162.5,230.6z"/>
<linearGradient id="패스_85_1_" gradientUnits="userSpaceOnUse" x1="592.017" y1="272.3641" x2="620.017" y2="-126.3025">
	<stop  offset="0" style="stop-color:#FCEED3;stop-opacity:0"/>
	<stop  offset="4.500000e-02" style="stop-color:#FCEED3;stop-opacity:0.204"/>
	<stop  offset="0.113" style="stop-color:#FCEED3;stop-opacity:0.482"/>
	<stop  offset="0.174" style="stop-color:#FCEED3;stop-opacity:0.706"/>
	<stop  offset="0.226" style="stop-color:#FCEED3;stop-opacity:0.867"/>
	<stop  offset="0.266" style="stop-color:#FCEED3;stop-opacity:0.965"/>
	<stop  offset="0.291" style="stop-color:#FCEED3"/>
	<stop  offset="0.344" style="stop-color:#FCEED3;stop-opacity:0.902"/>
	<stop  offset="0.528" style="stop-color:#FCEED3;stop-opacity:0.588"/>
	<stop  offset="0.692" style="stop-color:#FCEED3;stop-opacity:0.333"/>
	<stop  offset="0.829" style="stop-color:#FCEED3;stop-opacity:0.153"/>
	<stop  offset="0.934" style="stop-color:#FCEED3;stop-opacity:4.300000e-02"/>
	<stop  offset="0.995" style="stop-color:#FCEED3;stop-opacity:0"/>
</linearGradient>
<path id="패스_85" class="st1" d="M1162.5,232H1.4c-0.7,0-1.4-0.6-1.4-1.4c0-0.1,0-0.2,0-0.2L42.2,1.1C42.3,0.5,42.9,0,43.6,0
	h1161.1c0.7,0,1.4,0.6,1.4,1.4c0,0.1,0,0.2,0,0.2l-42.2,229.3C1163.7,231.5,1163.1,232,1162.5,232z M3,229.3h1158.3L1203,2.7H44.7
	L3,229.3z"/>
<path id="패스_86" class="st2" d="M313.1,166.3"/>
</svg>
