<?xml version="1.0" encoding="utf-8"?>
<!-- Generator: Adobe Illustrator 24.3.0, SVG Export Plug-In . SVG Version: 6.00 Build 0)  -->
<svg version="1.1" id="레이어_1" xmlns="http://www.w3.org/2000/svg" xmlns:xlink="http://www.w3.org/1999/xlink" x="0px"
	 y="0px" viewBox="0 0 213 307" style="enable-background:new 0 0 213 307;" xml:space="preserve">
<style type="text/css">
	.st0{fill:url(#SVGID_1_);}
	.st1{clip-path:url(#SVGID_3_);}
	.st2{clip-path:url(#SVGID_5_);}
	.st3{fill:#B3B3B3;}
	.st4{fill:url(#패스_132_1_);}
</style>
<linearGradient id="SVGID_1_" gradientUnits="userSpaceOnUse" x1="-848.4548" y1="691.7344" x2="-848.4548" y2="692.7344" gradientTransform="matrix(210.8701 0 0 -304.9999 179020.2812 211284.9531)">
	<stop  offset="7.400000e-02" style="stop-color:#8B2A72"/>
	<stop  offset="0.181" style="stop-color:#742C67"/>
	<stop  offset="0.345" style="stop-color:#59305A"/>
	<stop  offset="0.511" style="stop-color:#453250"/>
	<stop  offset="0.678" style="stop-color:#39344A"/>
	<stop  offset="0.848" style="stop-color:#363549"/>
</linearGradient>
<path class="st0" d="M161.9,306H17.1L1.1,286.7L51.1,1h144.8l16.1,19.3L161.9,306z"/>
<g>
	<defs>
		<polygon id="SVGID_2_" points="162.7,307 16.7,307 0,287 50.3,0 196.3,0 213,20 		"/>
	</defs>
	<clipPath id="SVGID_3_">
		<use xlink:href="#SVGID_2_"  style="overflow:visible;"/>
	</clipPath>
	<g id="그룹_37" class="st1">
		<g id="그룹_36" transform="translate(-5.865 -3.063)">
			<g>
				<defs>
					<polyline id="SVGID_4_" points="0,237.6 65.5,168.6 70.2,98 54.7,96.4 28.5,53.7 115.2,10.8 181.1,0 232.8,37.2 258.6,58.4 
						252.2,85.5 229.3,93 235.1,172.5 290.5,219.7 271,438.8 26.2,438.7 0,237.6 					"/>
				</defs>
				<clipPath id="SVGID_5_">
					<use xlink:href="#SVGID_4_"  style="overflow:visible;"/>
				</clipPath>
				<g id="그룹_35" class="st2">
					
						<image style="overflow:visible;enable-background:new    ;" width="617" height="862" id="사각형_14" xlink:href="28E49DD1.png"  transform="matrix(1.3013 0 0 1.301 -255.9505 6.5164)">
					</image>
				</g>
			</g>
		</g>
	</g>
</g>
<path class="st3" d="M51.9,2L2.1,286.4L17.6,305h143.5l49.8-284.4L195.4,2H51.9 M50.3,0h146.1L213,20l-50.3,287H16.7L0,287L50.3,0z"
	/>
<linearGradient id="패스_132_1_" gradientUnits="userSpaceOnUse" x1="-848.9954" y1="692.2427" x2="-847.9954" y2="692.2427" gradientTransform="matrix(213.0039 0 0 -307.001 180839.3281 212672.7188)">
	<stop  offset="0" style="stop-color:#FCEED3;stop-opacity:0"/>
	<stop  offset="8.199999e-02" style="stop-color:#FCEED3;stop-opacity:0.204"/>
	<stop  offset="0.204" style="stop-color:#FCEED3;stop-opacity:0.482"/>
	<stop  offset="0.314" style="stop-color:#FCEED3;stop-opacity:0.706"/>
	<stop  offset="0.408" style="stop-color:#FCEED3;stop-opacity:0.867"/>
	<stop  offset="0.482" style="stop-color:#FCEED3;stop-opacity:0.965"/>
	<stop  offset="0.527" style="stop-color:#FCEED3"/>
	<stop  offset="0.562" style="stop-color:#FCEED3;stop-opacity:0.902"/>
	<stop  offset="0.684" style="stop-color:#FCEED3;stop-opacity:0.588"/>
	<stop  offset="0.793" style="stop-color:#FCEED3;stop-opacity:0.333"/>
	<stop  offset="0.884" style="stop-color:#FCEED3;stop-opacity:0.153"/>
	<stop  offset="0.954" style="stop-color:#FCEED3;stop-opacity:4.300000e-02"/>
	<stop  offset="0.995" style="stop-color:#FCEED3;stop-opacity:0"/>
</linearGradient>
<path id="패스_132" class="st4" d="M162.2,307H17.5c-0.3,0-0.6-0.1-0.8-0.4L0.2,286.8C0,286.6,0,286.3,0,286L49.8,0.8
	c0.1-0.5,0.5-0.8,1-0.8h144.7c0.3,0,0.6,0.1,0.8,0.4l16.5,19.9c0.2,0.2,0.3,0.5,0.2,0.8l-49.8,285.1
	C163.1,306.7,162.7,307,162.2,307z M18,305h143.4L211,21.1L195,2H51.6L2,285.9L18,305z"/>
</svg>
