<?xml version="1.0" encoding="utf-8"?>
<!-- Generator: Adobe Illustrator 24.3.0, SVG Export Plug-In . SVG Version: 6.00 Build 0)  -->
<svg version="1.1" id="레이어_1" xmlns="http://www.w3.org/2000/svg" xmlns:xlink="http://www.w3.org/1999/xlink" x="0px"
	 y="0px" viewBox="0 0 234 346" style="enable-background:new 0 0 234 346;" xml:space="preserve">
<style type="text/css">
	.st0{fill:url(#SVGID_1_);}
	.st1{clip-path:url(#SVGID_3_);}
	.st2{clip-path:url(#SVGID_5_);}
	.st3{fill:#B3B3B3;}
	.st4{fill:url(#패스_132_1_);}
</style>
<g>
	
		<linearGradient id="SVGID_1_" gradientUnits="userSpaceOnUse" x1="-848.4027" y1="711.4032" x2="-848.4027" y2="712.5302" gradientTransform="matrix(210.8701 0 0 -304.9999 179019.7812 217322.8125)">
		<stop  offset="7.400000e-02" style="stop-color:#8B2A72"/>
		<stop  offset="0.181" style="stop-color:#742C67"/>
		<stop  offset="0.345" style="stop-color:#59305A"/>
		<stop  offset="0.511" style="stop-color:#453250"/>
		<stop  offset="0.678" style="stop-color:#39344A"/>
		<stop  offset="0.848" style="stop-color:#363549"/>
	</linearGradient>
	<path class="st0" d="M177.9,344.9h-159L1.2,323.1l55-322h159l17.6,21.7L177.9,344.9z"/>
	<g>
		<defs>
			<polygon id="SVGID_2_" points="178.8,346 18.3,346 0,323.5 55.2,0 215.7,0 234,22.5 			"/>
		</defs>
		<clipPath id="SVGID_3_">
			<use xlink:href="#SVGID_2_"  style="overflow:visible;"/>
		</clipPath>
		<g id="그룹_43" class="st1">
			<g id="그룹_42" transform="translate(-24.494 3.151)">
				<g>
					<defs>
						<path id="SVGID_4_" d="M4.4,255.1c0,0,17.6-26.5,42.7-34.9c0,0,1.4-10.5,5.9-11.8c0,0,0.8-2.1,4.1-1.6
							c0.6-1.1,1.6-1.9,2.8-2.2c0,0,0.6-1.7,1.7-1.7v-2.6l3-4.2L85,192c0,0,4.5-0.3,4.9,5.1c3.5,0.4,6.6,2.3,8.7,5.2
							c0,0,26.1-18.2,28.9-19.6s6.9-5.2,6.9-16.5c0-11.2,0.4-15.5-2.5-20.8c0,0-5.7,2.5-9.4-2.3c-3.7-4.8-6.8-15.6-6.8-15.6
							s-3.5-14.2-0.2-20.3c3.3-6.1,5.7-3.6,8.2-1c0,0-0.6-7.4-1.2-10.2c-0.4-2.4-0.7-4.8-0.9-7.3c-0.8-1.9-0.4-4.1,1.1-5.6
							c0,0-3.8-5.7-0.8-15.1c0,0-1.4-11.7,2.7-20.6c4.1-9,7.2-9.8,8.9-10.2c0,0,3.1-9.9,5.3-11.6c2.3-1.7,5.6-4,9.8-4.4l1.3-1.3
							c0.6-2.4,2-4.6,3.9-6.2c3-2.3,3.6-2,3.6-2c0.9-1.3,2.1-2.4,3.5-3.2c1.5-0.8,3-1.7,4.4-2.7l-1-3.4c-0.2-0.7,0.2-1.5,0.9-1.7
							c0.1,0,0.2-0.1,0.3-0.1l7.3-0.4c0.6,0,1.2,0.4,1.4,1l0.2,0.6c2.9-0.7,5.8-0.1,8.3,1.6l1.6-2.2c0.2-0.3,0.6-0.5,1.1-0.5h6.7
							c0.6,0,1.1,0.4,1.3,1l0,0c0.1,0.3,0,0.7-0.1,1L191.4,6l3.3,2.1c0,0,1.7-0.6,3,1.6l3,4.3c0,0,2.6,0.1,3,2.3
							c1.1,0.5,2.3,0.9,3.4,1.2c1.4,0.4,2.6,1.5,3.1,2.9c0.8,1.6,1.8,3.2,3,4.6l4.2,2.4c1.1,0.6,1.9,1.6,2.4,2.8
							c0.3,0.9,0.7,1.7,1.3,2.4c1.2,0.8,2.3,1.8,3.1,3.1c1.4,2.1,4.9,6.8,4.9,6.8s10.3,9.3,11.4,17.9c1.2,8.6,2.8,24.7,2.8,24.7
							s0.3,7.7-5.7,7.3l-6.8,13.5c0,0,3-2.7,5-2.4c2,0.4,5.4,3.7,4.9,11.2s-2.9,22.4-8.9,28.6c0,0-4,3.8-7.2,1.4h-1.9
							c0,0-1.8,1.4-2.3,7.9c-0.5,6.5,0.5,20.9,0.5,20.9s2.4,7,7.6,10.5c5.2,3.5,27,18.7,27,18.7c1.6-2.2,3.9-3.7,6.5-4.2l2.5-0.7
							v-2.3c0,0,1-3.4,3.6-3.4c2.3,0,17.8,2.7,21,3.3c0.4,0.1,0.7,0.3,1,0.6l2.6,3c0.2,0.2,0.3,0.4,0.3,0.7l0.4,1.6
							c0,0.2,0.1,0.3,0.2,0.5l1.9,3.1c0,0.1,0.1,0.1,0.1,0.2l1,1.3c0.4,0.5,1.2,0.7,1.8,0.5l0,0c0.6-0.2,1.3-0.1,1.7,0.4l4.7,4.7
							l1.9,8.1c0,0,17.3,3,46.4,38.2v100.9H4.4L4.4,255.1z"/>
					</defs>
					<clipPath id="SVGID_5_">
						<use xlink:href="#SVGID_4_"  style="overflow:visible;"/>
					</clipPath>
					<g id="그룹_41" class="st2">
						
							<image style="overflow:visible;enable-background:new    ;" width="800" height="800" id="사각형_15" xlink:href="1C892F26.jpg"  transform="matrix(0.4342 0 0 0.4454 5.2952 -0.3602)">
						</image>
					</g>
				</g>
			</g>
		</g>
	</g>
	<path class="st3" d="M57.1,2.3L2.3,322.8l17,20.9h157.6l54.7-320.6l-17-20.9H57.1 M55.2,0h160.5L234,22.5L178.8,346H18.3L0,323.5
		L55.2,0z"/>
	
		<linearGradient id="패스_132_1_" gradientUnits="userSpaceOnUse" x1="-848.993" y1="711.975" x2="-847.8945" y2="711.975" gradientTransform="matrix(213.0039 0 0 -307.001 180838.8281 218750.0469)">
		<stop  offset="0" style="stop-color:#FCEED3;stop-opacity:0"/>
		<stop  offset="8.199999e-02" style="stop-color:#FCEED3;stop-opacity:0.204"/>
		<stop  offset="0.204" style="stop-color:#FCEED3;stop-opacity:0.482"/>
		<stop  offset="0.314" style="stop-color:#FCEED3;stop-opacity:0.706"/>
		<stop  offset="0.408" style="stop-color:#FCEED3;stop-opacity:0.867"/>
		<stop  offset="0.482" style="stop-color:#FCEED3;stop-opacity:0.965"/>
		<stop  offset="0.527" style="stop-color:#FCEED3"/>
		<stop  offset="0.562" style="stop-color:#FCEED3;stop-opacity:0.902"/>
		<stop  offset="0.684" style="stop-color:#FCEED3;stop-opacity:0.588"/>
		<stop  offset="0.793" style="stop-color:#FCEED3;stop-opacity:0.333"/>
		<stop  offset="0.884" style="stop-color:#FCEED3;stop-opacity:0.153"/>
		<stop  offset="0.954" style="stop-color:#FCEED3;stop-opacity:4.300000e-02"/>
		<stop  offset="0.995" style="stop-color:#FCEED3;stop-opacity:0"/>
	</linearGradient>
	<path id="패스_132" class="st4" d="M178.2,346h-159c-0.3,0-0.6-0.1-0.8-0.4L0.3,323.2C0,323,0,322.6,0,322.3L54.7,0.9
		C54.8,0.4,55.3,0,55.8,0h159c0.3,0,0.6,0.1,0.8,0.4l18.1,22.4c0.2,0.3,0.3,0.6,0.2,0.9l-54.7,321.4
		C179.2,345.6,178.7,346,178.2,346z M19.7,343.8h157.6l54.5-319.9L214.3,2.2H56.7L2.2,322.2L19.7,343.8z"/>
</g>
</svg>
