<svg xmlns="http://www.w3.org/2000/svg" width="23.014" height="23.08" viewBox="0 0 23.014 23.08">
  <defs>
    <style>
      .cls-1 {
        fill: #fff;
        stroke: #fff;
      }
    </style>
  </defs>
  <path id="패스_124" data-name="패스 124" class="cls-1" d="M-3033.186,2790.059l-6.534-6.345h0c.033-.04.069-.078.1-.117a8.019,8.019,0,0,0,1.968-7.489,8.4,8.4,0,0,0-6.627-6.451c-.43-.106-.878-.143-1.317-.212h-1.188c-.056.013-.111.028-.168.037-.476.078-.961.122-1.427.239a8.529,8.529,0,0,0-6.4,9.884,8.834,8.834,0,0,0,13.136,5.649c.229-.135.45-.282.694-.437l6.581,6.391a.853.853,0,0,0,1.189-.006h0A.8.8,0,0,0-3033.186,2790.059Zm-13-5.117a7.076,7.076,0,0,1-7.167-6.987,7.082,7.082,0,0,1,7.188-6.968,7.1,7.1,0,0,1,7.162,6.979A7.081,7.081,0,0,1-3046.183,2784.942Z" transform="translate(3055.455 -2768.944)"/>
</svg>
