<?xml version="1.0" encoding="utf-8"?>
<!-- Generator: Adobe Illustrator 24.3.0, SVG Export Plug-In . SVG Version: 6.00 Build 0)  -->
<svg version="1.1" id="레이어_1" xmlns="http://www.w3.org/2000/svg" xmlns:xlink="http://www.w3.org/1999/xlink" x="0px"
	 y="0px" viewBox="0 0 300.3 98" style="enable-background:new 0 0 300.3 98;" xml:space="preserve">
<style type="text/css">
	.st0{fill:url(#패스_126_1_);stroke:#707070;stroke-width:2;}
	.st1{fill:url(#패스_127_1_);}
	.st2{fill:none;}
	.st3{enable-background:new    ;}
	.st4{fill:#FFFFD1;}
</style>
<g>
	<g id="그룹_191" transform="translate(-4345.873 6224)">
		<g id="구성_요소_37_2" transform="translate(4354 -6216)">
			<g id="그룹_189" transform="translate(-4386 6157)">
				
					<linearGradient id="패스_126_1_" gradientUnits="userSpaceOnUse" x1="10715.835" y1="-5594.8843" x2="10715.4668" y2="-5591.5952" gradientTransform="matrix(282.0051 0 0 -80 -3017361.25 -453626)">
					<stop  offset="7.400000e-02" style="stop-color:#8B2A72"/>
					<stop  offset="0.181" style="stop-color:#742C67"/>
					<stop  offset="0.345" style="stop-color:#59305A"/>
					<stop  offset="0.511" style="stop-color:#453250"/>
					<stop  offset="0.678" style="stop-color:#39344A"/>
					<stop  offset="0.848" style="stop-color:#363549"/>
				</linearGradient>
				<path id="패스_126" class="st0" d="M4656.3-6076.7h-257.7l-12.8-15.3l11.4-64.7h257.7l12.8,15.3L4656.3-6076.7z"/>
				
					<linearGradient id="패스_127_1_" gradientUnits="userSpaceOnUse" x1="10715.3701" y1="-5594.2646" x2="10715.9531" y2="-5592.5723" gradientTransform="matrix(283.9996 0 0 -82.0002 -3038716.75 -464778.375)">
					<stop  offset="0" style="stop-color:#FCEED3;stop-opacity:0"/>
					<stop  offset="8.199999e-02" style="stop-color:#FCEED3;stop-opacity:0.204"/>
					<stop  offset="0.204" style="stop-color:#FCEED3;stop-opacity:0.482"/>
					<stop  offset="0.314" style="stop-color:#FCEED3;stop-opacity:0.706"/>
					<stop  offset="0.408" style="stop-color:#FCEED3;stop-opacity:0.867"/>
					<stop  offset="0.482" style="stop-color:#FCEED3;stop-opacity:0.965"/>
					<stop  offset="0.527" style="stop-color:#FCEED3"/>
					<stop  offset="0.562" style="stop-color:#FCEED3;stop-opacity:0.902"/>
					<stop  offset="0.684" style="stop-color:#FCEED3;stop-opacity:0.588"/>
					<stop  offset="0.793" style="stop-color:#FCEED3;stop-opacity:0.333"/>
					<stop  offset="0.884" style="stop-color:#FCEED3;stop-opacity:0.153"/>
					<stop  offset="0.954" style="stop-color:#FCEED3;stop-opacity:4.300000e-02"/>
					<stop  offset="0.995" style="stop-color:#FCEED3;stop-opacity:0"/>
				</linearGradient>
				<path id="패스_127" class="st1" d="M4656.3-6075.7h-257.7c-0.3,0-0.6-0.1-0.8-0.4l-12.8-15.3c-0.2-0.2-0.3-0.5-0.2-0.8
					l11.4-64.7c0.1-0.5,0.5-0.8,1-0.8h257.7c0.3,0,0.6,0.1,0.8,0.4l12.8,15.3c0.2,0.2,0.3,0.5,0.2,0.8l-11.4,64.7
					C4657.2-6076,4656.8-6075.7,4656.3-6075.7z M4399-6077.7h256.4l11.2-63.5l-12.2-14.5H4398l-11.2,63.5L4399-6077.7z"/>
			</g>
			<path id="패스_130" class="st2" d="M271.2,81.3H11.7L-1.2,65.7L10.3-0.7h259.6l12.8,15.6L271.2,81.3z"/>
		</g>
	</g>
	<g class="st3">
		<path class="st4" d="M71.1,48.1c-0.1,0.4-0.4,0.7-0.7,1.1c-0.3,0.4-0.7,0.8-1.2,1.4c-0.7,0.7-1.4,1.5-2.3,2.4s-1.7,1.7-2.8,2.7
			L62,53.6c1.9-1.7,3.6-3.4,5.1-5c0.5-0.6,0.9-1.1,1.2-1.5c0.3-0.5,0.6-0.9,0.8-1.4c0.2-0.5,0.3-0.9,0.4-1.4s0.1-1,0.1-1.6v-7.1h3.2
			v7.1c0,0.6,0,1.2,0.1,1.7s0.2,1,0.4,1.4c0.2,0.5,0.5,0.9,0.8,1.4s0.7,1,1.2,1.5c0.7,0.7,1.4,1.5,2.1,2.2s1.6,1.5,2.6,2.4l-2,2.2
			c-1.1-1-2-1.9-2.8-2.7s-1.4-1.5-2.1-2.1c-0.4-0.5-0.8-0.9-1.2-1.4C71.5,48.8,71.3,48.5,71.1,48.1L71.1,48.1z M90,46.9h-4.5V63
			h-3.2V33.4h3.2v10.7H90V46.9z"/>
		<path class="st4" d="M101.6,45.1c-0.1,0.3-0.4,0.7-0.8,1.1c-0.4,0.5-0.9,0.9-1.4,1.4c-0.7,0.6-1.4,1.3-2.3,1.9s-1.7,1.3-2.6,1.9
			l-1.9-2.3c1-0.7,2-1.4,2.9-2.1c0.9-0.7,1.7-1.3,2.2-1.9c0.4-0.4,0.7-0.7,1-1.1c0.3-0.4,0.5-0.7,0.6-1.1s0.3-0.8,0.4-1.3
			s0.1-1,0.1-1.6v-2h-6.2v-2.7h15.2V38H103v1.8c0,1,0.1,1.9,0.3,2.5c0.2,0.7,0.7,1.3,1.3,1.9c0.8,0.7,1.6,1.3,2.4,2
			c0.8,0.6,1.7,1.2,2.7,1.9l-1.8,2.3c-0.8-0.6-1.6-1.1-2.3-1.7c-0.7-0.6-1.5-1.2-2.2-1.8c-0.5-0.4-0.9-0.8-1.2-1.1
			C102,45.6,101.8,45.3,101.6,45.1L101.6,45.1z M101.5,59.9h15.9v2.8h-19v-9.9h3.2L101.5,59.9L101.5,59.9z M113.6,54.5V43.7h-5.4V41
			h5.4v-7.5h3.1v21H113.6z"/>
		<path class="st4" d="M129.1,35.7c3,0,5,1.4,5.9,4.3h4v-5.9h3.1v27.5H139V51.3h-3.9c-0.9,3-2.9,4.4-6,4.4c-2.1,0-3.7-0.7-4.8-2.1
			s-1.6-3.5-1.6-6.4v-3.1C122.6,38.5,124.8,35.7,129.1,35.7z M129.1,53c1.3,0,2.2-0.5,2.7-1.5s0.8-2.5,0.8-4.5v-2.4
			c0-2-0.3-3.5-0.8-4.5s-1.4-1.5-2.7-1.5s-2.1,0.5-2.7,1.5c-0.5,1-0.8,2.5-0.8,4.5V47c0,2,0.3,3.5,0.8,4.5
			C126.9,52.5,127.8,53,129.1,53z M135.5,47.3c0,0.2,0,0.5,0,0.7s0,0.4,0,0.6h3.5v-5.9h-3.5c0,0.2,0,0.5,0,0.7s0,0.5,0,0.8V47.3z
			 M147.6,62.9h-3.1V33.4h3.1V62.9z"/>
		<path class="st4" d="M166.7,42.6c0,0.7-0.1,1.4-0.4,2.2s-0.7,1.5-1.3,2.1s-1.4,1.1-2.3,1.6c-0.9,0.4-2,0.6-3.3,0.6
			s-2.3-0.2-3.3-0.6c-0.9-0.4-1.7-0.9-2.3-1.6c-0.6-0.6-1.1-1.3-1.3-2.1s-0.4-1.5-0.4-2.2V41c0-0.7,0.1-1.4,0.4-2.2
			c0.3-0.8,0.7-1.5,1.3-2.1s1.4-1.1,2.3-1.6c0.9-0.4,2-0.6,3.3-0.6s2.3,0.2,3.3,0.6c0.9,0.4,1.7,0.9,2.3,1.6
			c0.6,0.6,1.1,1.3,1.3,2.1c0.3,0.8,0.4,1.5,0.4,2.2V42.6z M163.7,41.1c0-0.5-0.1-0.9-0.3-1.4s-0.4-0.9-0.8-1.2
			c-0.4-0.4-0.8-0.7-1.3-0.9s-1.2-0.3-1.9-0.3s-1.4,0.1-1.9,0.3s-1,0.5-1.3,0.9c-0.4,0.4-0.6,0.8-0.8,1.2c-0.2,0.5-0.3,0.9-0.3,1.4
			v1.3c0,0.5,0.1,0.9,0.3,1.4s0.4,0.9,0.8,1.2c0.4,0.4,0.8,0.7,1.3,0.9s1.2,0.3,1.9,0.3s1.4-0.1,1.9-0.3s1-0.5,1.3-0.9
			c0.4-0.4,0.6-0.8,0.8-1.2s0.3-0.9,0.3-1.4V41.1z M156,52.1h18.7v11.1h-3.2v-8.4H156V52.1z M178.8,40.2h-4.2v3.3h4.2v2.7h-4.2v4.4
			h-3.1V33.4h3.1v4h4.2V40.2z"/>
		<path class="st4" d="M188.6,37.8v-4.2h3.2v4.2h6.8v2.7h-17.1v-2.7H188.6z M190.1,56.4c-1.1,0-2.1-0.2-3-0.5
			c-0.9-0.4-1.6-0.8-2.2-1.4s-1.1-1.2-1.4-2c-0.3-0.7-0.5-1.5-0.5-2.3v-1.9c0-0.8,0.2-1.5,0.5-2.3c0.3-0.7,0.8-1.4,1.4-2
			s1.4-1.1,2.2-1.4c0.9-0.4,1.9-0.5,3-0.5s2.1,0.2,3,0.5c0.9,0.4,1.6,0.8,2.3,1.4s1.1,1.3,1.4,2c0.3,0.7,0.5,1.5,0.5,2.3v1.9
			c0,0.8-0.2,1.5-0.5,2.3s-0.8,1.4-1.4,2s-1.4,1-2.3,1.4C192.3,56.2,191.3,56.4,190.1,56.4z M190.1,44.8c-1.3,0-2.3,0.4-3,1.1
			s-1.1,1.7-1.1,2.8v1.2c0,1.2,0.4,2.1,1.1,2.8s1.8,1.1,3,1.1c1.3,0,2.3-0.4,3-1.1s1.1-1.6,1.1-2.8v-1.2c0-1.2-0.4-2.1-1.1-2.8
			S191.4,44.8,190.1,44.8z M209.1,47.9h-4.5v15h-3.2V33.4h3.2v11.7h4.5V47.9z"/>
		<path class="st4" d="M212.4,54c1.7-1,3.2-1.9,4.3-2.7c1.2-0.8,2.2-1.5,3-2.1c0.8-0.7,1.4-1.3,1.9-1.8c0.4-0.6,0.8-1.1,1-1.7
			c0.2-0.6,0.4-1.2,0.4-1.8c0.1-0.6,0.1-1.3,0.1-2.1v-2.9H213v-2.7h13.2v5.7c0,1,0,1.8-0.1,2.6s-0.2,1.5-0.5,2.2s-0.6,1.4-1.1,2
			c-0.5,0.7-1.2,1.4-2.1,2.2c-0.9,0.8-2,1.6-3.4,2.5s-3,2-4.9,3.1L212.4,54z M232.5,62.9V33.4h3.2v29.5H232.5z"/>
	</g>
</g>
</svg>
