<?xml version="1.0" encoding="utf-8"?>
<!-- Generator: Adobe Illustrator 24.3.0, SVG Export Plug-In . SVG Version: 6.00 Build 0)  -->
<svg version="1.1" id="레이어_1" xmlns="http://www.w3.org/2000/svg" xmlns:xlink="http://www.w3.org/1999/xlink" x="0px"
	 y="0px" viewBox="0 0 300.3 98" style="enable-background:new 0 0 300.3 98;" xml:space="preserve">
<style type="text/css">
	.st0{fill:url(#패스_126_1_);stroke:#707070;stroke-width:2;}
	.st1{fill:url(#패스_127_1_);}
	.st2{enable-background:new    ;}
	.st3{fill:#FFFFD1;}
</style>
<g>
	<g>
		<g id="그룹_192" transform="translate(-4345.873 6224)">
			<g id="구성_요소_37_3" transform="translate(4354 -6216)">
				<g id="그룹_189" transform="translate(-4386 6157)">
					
						<linearGradient id="패스_126_1_" gradientUnits="userSpaceOnUse" x1="10715.7646" y1="-5594.8833" x2="10715.6367" y2="-5591.5977" gradientTransform="matrix(282.0051 0 0 -80 -3017361.25 -453626)">
						<stop  offset="0" style="stop-color:#FFE9BE"/>
						<stop  offset="0.151" style="stop-color:#AB6D7F"/>
						<stop  offset="0.276" style="stop-color:#872A70"/>
						<stop  offset="0.511" style="stop-color:#453250"/>
						<stop  offset="0.678" style="stop-color:#39344A"/>
						<stop  offset="0.848" style="stop-color:#363549"/>
						<stop  offset="1" style="stop-color:#363549"/>
					</linearGradient>
					<path id="패스_126" class="st0" d="M4657.6-6076h-257.8l-12.8-15.3l11.4-64.7h257.8l12.8,15.3L4657.6-6076z"/>
				</g>
			</g>
		</g>
		
			<linearGradient id="패스_127_1_" gradientUnits="userSpaceOnUse" x1="-2418.2456" y1="570.7271" x2="-2417.6633" y2="572.4196" gradientTransform="matrix(283.9996 0 0 -82.0002 686848.1875 46918.1445)">
			<stop  offset="0" style="stop-color:#FCEED3;stop-opacity:0"/>
			<stop  offset="8.199999e-02" style="stop-color:#FCEED3;stop-opacity:0.204"/>
			<stop  offset="0.204" style="stop-color:#FCEED3;stop-opacity:0.482"/>
			<stop  offset="0.314" style="stop-color:#FCEED3;stop-opacity:0.706"/>
			<stop  offset="0.408" style="stop-color:#FCEED3;stop-opacity:0.867"/>
			<stop  offset="0.482" style="stop-color:#FCEED3;stop-opacity:0.965"/>
			<stop  offset="0.527" style="stop-color:#FCEED3"/>
			<stop  offset="0.562" style="stop-color:#FCEED3;stop-opacity:0.902"/>
			<stop  offset="0.684" style="stop-color:#FCEED3;stop-opacity:0.588"/>
			<stop  offset="0.793" style="stop-color:#FCEED3;stop-opacity:0.333"/>
			<stop  offset="0.884" style="stop-color:#FCEED3;stop-opacity:0.153"/>
			<stop  offset="0.954" style="stop-color:#FCEED3;stop-opacity:4.300000e-02"/>
			<stop  offset="0.995" style="stop-color:#FCEED3;stop-opacity:0"/>
		</linearGradient>
		<path id="패스_127" class="st1" d="M279.7,90H21.9c-0.3,0-0.6-0.1-0.8-0.4L8.4,74.4c-0.2-0.2-0.3-0.5-0.2-0.8L19.5,8.8
			C19.6,8.3,20,8,20.5,8h257.8c0.3,0,0.6,0.1,0.8,0.4l12.8,15.3c0.2,0.2,0.3,0.5,0.2,0.8l-11.4,64.7C280.6,89.7,280.2,90,279.7,90z
			 M22.4,88h256.5l11.2-63.5L277.9,10H21.4L10.2,73.5L22.4,88z"/>
	</g>
	<g class="st2">
		<path class="st3" d="M72.5,48.8c-0.1,0.4-0.4,0.7-0.7,1.1c-0.3,0.4-0.7,0.8-1.2,1.4c-0.7,0.7-1.4,1.5-2.3,2.4s-1.8,1.8-2.9,2.8
			l-2.1-2.1c1.9-1.7,3.6-3.4,5.1-5c0.5-0.6,0.9-1.1,1.2-1.5c0.3-0.5,0.6-0.9,0.8-1.4c0.2-0.5,0.3-0.9,0.4-1.4s0.1-1,0.1-1.6v-7.1
			h3.2v7.1c0,0.6,0,1.2,0.1,1.7s0.2,1,0.4,1.4c0.2,0.5,0.5,0.9,0.8,1.4s0.7,1,1.2,1.5c0.7,0.7,1.4,1.5,2.1,2.2s1.6,1.5,2.6,2.4
			l-2,2.2c-1.1-1-2-1.9-2.8-2.7s-1.4-1.5-2.1-2.1c-0.4-0.5-0.8-0.9-1.2-1.4C72.9,49.5,72.6,49.1,72.5,48.8L72.5,48.8z M91.3,47.5
			h-4.5v16.1h-3.2V34.1h3.2v10.7h4.5V47.5z"/>
		<path class="st3" d="M103,45.7c-0.1,0.3-0.4,0.7-0.8,1.1c-0.4,0.5-0.9,0.9-1.4,1.4c-0.7,0.6-1.4,1.3-2.3,1.9s-1.7,1.3-2.6,1.9
			L94,49.7c1-0.7,2-1.4,2.9-2.1c0.9-0.7,1.7-1.3,2.2-1.9c0.4-0.4,0.7-0.7,1-1.1c0.3-0.4,0.5-0.7,0.6-1.1s0.3-0.8,0.4-1.3
			s0.1-1,0.1-1.6v-2H95V36h15.2v2.7h-5.8v1.8c0,1,0.1,1.9,0.3,2.5c0.2,0.7,0.7,1.3,1.3,1.9c0.8,0.7,1.6,1.3,2.4,2
			c0.8,0.6,1.7,1.2,2.7,1.9l-1.8,2.3c-0.8-0.6-1.6-1.1-2.3-1.7c-0.7-0.6-1.5-1.2-2.2-1.8c-0.5-0.4-0.9-0.8-1.2-1.1
			C103.3,46.2,103.1,46,103,45.7L103,45.7z M102.9,60.5h15.9v2.8h-19v-9.9h3.2L102.9,60.5L102.9,60.5z M115,55.1V44.3h-5.4v-2.7h5.4
			v-7.5h3.1v21H115z"/>
		<path class="st3" d="M130.4,36.3c3,0,5,1.4,5.9,4.3h4v-5.9h3.1v27.5h-3.1V52h-3.9c-0.9,3-2.9,4.4-6,4.4c-2.1,0-3.7-0.7-4.8-2.1
			s-1.6-3.5-1.6-6.4v-3.1C123.9,39.1,126.1,36.3,130.4,36.3z M130.4,53.6c1.3,0,2.2-0.5,2.7-1.5s0.8-2.5,0.8-4.5v-2.4
			c0-2-0.3-3.5-0.8-4.5s-1.4-1.5-2.7-1.5s-2.1,0.5-2.7,1.5c-0.5,1-0.8,2.5-0.8,4.5v2.4c0,2,0.3,3.5,0.8,4.5
			C128.3,53.1,129.2,53.6,130.4,53.6z M136.9,47.9c0,0.2,0,0.5,0,0.7s0,0.4,0,0.6h3.5v-5.9h-3.5c0,0.2,0,0.5,0,0.7s0,0.5,0,0.8V47.9
			z M148.9,63.6h-3.1V34.1h3.1V63.6z"/>
		<path class="st3" d="M168,43.3c0,0.7-0.1,1.4-0.4,2.2s-0.7,1.5-1.3,2.1s-1.4,1.1-2.3,1.6c-0.9,0.4-2,0.6-3.3,0.6s-2.3-0.2-3.3-0.6
			c-0.9-0.4-1.7-0.9-2.3-1.6c-0.6-0.6-1.1-1.3-1.3-2.1s-0.4-1.5-0.4-2.2v-1.6c0-0.7,0.1-1.4,0.4-2.2c0.3-0.8,0.7-1.5,1.3-2.1
			s1.4-1.1,2.3-1.6c0.9-0.4,2-0.6,3.3-0.6s2.3,0.2,3.3,0.6c0.9,0.4,1.7,0.9,2.3,1.6c0.6,0.6,1.1,1.3,1.3,2.1
			c0.3,0.8,0.4,1.5,0.4,2.2V43.3z M165,41.8c0-0.5-0.1-0.9-0.3-1.4s-0.4-0.9-0.8-1.2c-0.4-0.4-0.8-0.7-1.3-0.9s-1.2-0.3-1.9-0.3
			s-1.4,0.1-1.9,0.3s-1,0.5-1.3,0.9c-0.4,0.4-0.6,0.8-0.8,1.2c-0.2,0.5-0.3,0.9-0.3,1.4v1.3c0,0.5,0.1,0.9,0.3,1.4s0.4,0.9,0.8,1.2
			c0.4,0.4,0.8,0.7,1.3,0.9s1.2,0.3,1.9,0.3s1.4-0.1,1.9-0.3s1-0.5,1.3-0.9c0.4-0.4,0.6-0.8,0.8-1.2s0.3-0.9,0.3-1.4V41.8z
			 M157.3,52.8H176v11.1h-3.2v-8.4h-15.5V52.8z M180.1,40.8H176v3.3h4.2v2.7H176v4.4h-3.1V34.1h3.1v4h4.2L180.1,40.8L180.1,40.8z"/>
		<path class="st3" d="M189.9,38.5v-4.2h3.2v4.2h6.8v2.7h-17.1v-2.7H189.9z M191.5,57c-1.1,0-2.1-0.2-3-0.5
			c-0.9-0.4-1.6-0.8-2.2-1.4s-1.1-1.2-1.4-2c-0.3-0.7-0.5-1.5-0.5-2.3V49c0-0.8,0.2-1.5,0.5-2.3c0.3-0.7,0.8-1.4,1.4-2
			s1.4-1.1,2.2-1.4c0.9-0.4,1.9-0.5,3-0.5s2.1,0.2,3,0.5c0.9,0.4,1.6,0.8,2.3,1.4s1.1,1.3,1.4,2c0.3,0.7,0.5,1.5,0.5,2.3v1.9
			c0,0.8-0.2,1.5-0.5,2.3s-0.8,1.4-1.4,2s-1.4,1-2.3,1.4C193.6,56.8,192.6,57,191.5,57z M191.5,45.4c-1.3,0-2.3,0.4-3,1.1
			s-1.1,1.7-1.1,2.8v1.2c0,1.2,0.4,2.1,1.1,2.8s1.8,1.1,3,1.1c1.3,0,2.3-0.4,3-1.1s1.1-1.6,1.1-2.8v-1.2c0-1.2-0.4-2.1-1.1-2.8
			S192.8,45.4,191.5,45.4z M210.4,48.6h-4.5v15h-3.2V34.1h3.2v11.7h4.5V48.6z"/>
		<path class="st3" d="M213.8,54.6c1.7-1,3.2-1.9,4.3-2.7c1.2-0.8,2.2-1.5,3-2.1c0.8-0.7,1.4-1.3,1.9-1.8c0.4-0.6,0.8-1.1,1-1.7
			c0.2-0.6,0.4-1.2,0.4-1.8c0.1-0.6,0.1-1.3,0.1-2.1v-2.9h-10.1v-2.7h13.2v5.7c0,1,0,1.8-0.1,2.6s-0.2,1.5-0.5,2.2s-0.6,1.4-1.1,2
			c-0.5,0.7-1.2,1.4-2.1,2.2c-0.9,0.8-2,1.6-3.4,2.5s-3,2-4.9,3.1L213.8,54.6z M233.8,63.6V34.1h3.2v29.5H233.8z"/>
	</g>
</g>
</svg>
