<svg xmlns="http://www.w3.org/2000/svg" width="685" height="275" viewBox="0 0 685 275">
  <defs>
    <style>
      .cls-1 {
        fill: #fff;
      }

      .cls-2 {
        fill: none;
      }
    </style>
  </defs>
  <g id="그룹_139" data-name="그룹 139" transform="translate(-776.235 -218.983)">
    <g id="그룹_3" data-name="그룹 3" transform="translate(810.301 218.983)">
      <path id="패스_1" data-name="패스 1" class="cls-1" d="M875.261,345.666l-16.438-16.8,9.195-42.524,24.57-17.42h74.8l4.984-23.055H881.055l3.757-10.3,9.861-16.549h96.183l16.439,16.8-19.985,92.43-24.57,17.421Zm18.485-26.845H956.6l4.986-23.061H898.734Z" transform="translate(-738.761 -218.954)"/>
      <path id="패스_2" data-name="패스 2" class="cls-1" d="M1017.382,345.666l-16.439-16.8,9.2-42.524,24.57-17.42h74.8l4.984-23.055h-87.321l2.211-10.231,7.2-16.614h96.4l16.438,16.8-19.983,92.43-24.571,17.421Zm18.485-26.845h62.85l4.985-23.061h-62.848Z" transform="translate(-615.837 -218.954)"/>
      <path id="패스_3" data-name="패스 3" class="cls-1" d="M821.991,219.016l-3.93,17.416-8.55,39.546L803.3,304.7l-8.857,40.967H827.2l8.854-40.967.314-1.453h47L897.19,276.4l.215-.418H842.264l6.51-30.117H921.9l3.917-10.339,8.75-16.505Z" transform="translate(-794.445 -218.954)"/>
      <path id="패스_4" data-name="패스 4" class="cls-1" d="M1163.927,318.809l-.008.041h-52.9l18.213-83.276,9.169-16.592H1100.54l-.013.062h-.781L1076,328.89l.485.493,15.956,16.311H1190.4l2.229-10.314,9.157-16.572Z" transform="translate(-550.85 -218.983)"/>
      <path id="패스_5" data-name="패스 5" class="cls-1" d="M946.7,219.013l-5.8,26.85h46.763l-2.228,10.3-19.319,89.365,34.522-8.188,17.549-81.176,2.229-10.3h46.766l2.216-10.252,6.151-16.6Z" transform="translate(-667.748 -218.956)"/>
    </g>
    <path id="패스_6" data-name="패스 6" class="cls-1" d="M860.807,425.108l3.284-16.8,19.981-92.429,3.105-17.417h133.874l-9.382,16.8-19.982,92.43-3.852,17.42Zm38.2-26.845h61.963l15.769-72.96H914.791Z" transform="translate(73.17 67.331)"/>
    <g id="그룹_4" data-name="그룹 4" transform="translate(1285.06 365.726)">
      <path id="패스_7" data-name="패스 7" class="cls-2" d="M1143.236,312.774h-62.846l-4.988,23.055h62.85Z" transform="translate(-1026.126 -285.929)"/>
      <path id="패스_8" data-name="패스 8" class="cls-2" d="M1069.635,362.508h63.118l5.026-23.061h-63.158Z" transform="translate(-1031.147 -262.703)"/>
      <path id="패스_9" data-name="패스 9" class="cls-1" d="M1126.722,339.194l6.87-31.774-.028-.03-6.977,31.9Z" transform="translate(-981.557 -290.616)"/>
      <line id="선_1" data-name="선 1" class="cls-1" x1="6.004" transform="translate(95.757 126.649)"/>
      <path id="패스_10" data-name="패스 10" class="cls-1" d="M1132.45,359.335l-17.912,12.7h-11.08" transform="translate(-1001.697 -245.385)"/>
      <path id="패스_11" data-name="패스 11" class="cls-1" d="M1194.093,347.1l6.975-31.9.042-.182,9.168-16.592H1076.954l-4.343,17.415-23.549,110.842,20-1.607H1161.9l17.912-12.7,6.658-4.722,6.6-30.508,1.19-3.163,9.168-16.592h-11.59Zm-90.766-21.83h62.844l-4.981,23.055H1098.34Zm47.341,72.961-1.95,8.948,1.95-8.948h-63.119l4.988-23.061H1155.7Z" transform="translate(-1049.062 -298.424)"/>
    </g>
    <g id="그룹_5" data-name="그룹 5" transform="translate(776.235 365.726)">
      <path id="패스_12" data-name="패스 12" class="cls-2" d="M871.086,312.774H808.241l-4.988,23.055H866.1Z" transform="translate(-752.709 -285.929)"/>
      <path id="패스_13" data-name="패스 13" class="cls-2" d="M797.486,362.508H860.6l5.026-23.061H802.473Z" transform="translate(-757.731 -262.703)"/>
      <line id="선_2" data-name="선 2" class="cls-1" x1="6.004" transform="translate(97.024 126.649)"/>
      <path id="패스_14" data-name="패스 14" class="cls-1" d="M922.534,347.1h0l.135-.1,6.869-31.775-.027-.03.039-.182,9.169-16.592H805.392l-4.342,17.415L776.235,426.681l21.273-1.607h92.838l17.91-12.7,6.66-4.722,6.6-30.508,1.192-3.163,9.169-16.592H920.284Zm-90.767-21.83h62.846l-4.982,23.055H826.779Zm47.344,72.961H815.991l4.988-23.061h63.156Z" transform="translate(-776.235 -298.424)"/>
    </g>
    <path id="패스_15" data-name="패스 15" class="cls-1" d="M1134.217,298.458h-55.445l-21.7,15.384-15.05-15.384H986.578l-24.571,17.416-6.02,27.846L938.4,425.049l34.525-8.189,15.812-73.139,3.982-18.418h45.127l-3.981,18.418-17.595,81.387h.355l34.149-8.1,15.844-73.287L1070.6,325.3h45.128l-3.981,18.418-17.594,81.387h3.861l30.452-7.223,16.034-74.164,6.153-28.463Z" transform="translate(140.205 67.332)"/>
  </g>
</svg>
