<svg xmlns="http://www.w3.org/2000/svg" width="482.692" height="116.172" viewBox="0 0 482.692 116.172">
  <defs>
    <style>
      .cls-1 {
        fill: #fff;
      }
    </style>
  </defs>
  <g id="그룹_140" data-name="그룹 140" transform="translate(-1214.992 -627.88)">
    <g id="그룹_8" data-name="그룹 8" transform="translate(1214.992 627.88)">
      <path id="패스_16" data-name="패스 16" class="cls-1" d="M21.3.521H35.074L30.007,6.066l-7.19,15.111h6.677l-1,25.308h-10.2l1.046-18.04-8.616,18.04H0Zm7.357,48.84,6.3-23.426H30.116l.514-9.671h6.885L41.88,0H52.394L39.865,46.75Zm11.882,0L53.762,0H66.116L62.863,5.386,51.748,46.75Z" transform="translate(0 1.308)"/>
      <path id="패스_17" data-name="패스 17" class="cls-1" d="M0,26.563,20.316,0H36.144L29.208,5.386l-3.731,4.706h7.938l3.1,15.95H24.788L22.838,13.387,12.407,26.563Zm46.215,4.681q2.205,2.9,1.038,7.346a12.843,12.843,0,0,1-4.917,7.219,13.515,13.515,0,0,1-8.21,2.77H9.783q-4.469,0-6.617-2.746t-.978-7.191A13.53,13.53,0,0,1,7.1,31.268a12.945,12.945,0,0,1,8.15-2.925H39.591Q44.009,28.344,46.215,31.244ZM15.947,41.258H32.09a4.726,4.726,0,0,0,2.527-.758,3.322,3.322,0,0,0,1.547-1.964,2,2,0,0,0-.408-2.065,2.955,2.955,0,0,0-2.175-.758H17.437a4.438,4.438,0,0,0-2.5.758,3.5,3.5,0,0,0-1.484,2.065,1.891,1.891,0,0,0,.42,2.017A2.954,2.954,0,0,0,15.947,41.258ZM38.2,26.722,45.4,0h12.62L54.706,5.386l-1,3.658h5.784l-3.794,8.368H51.487l-2.509,9.309Z" transform="translate(56.998 1.308)"/>
      <path id="패스_18" data-name="패스 18" class="cls-1" d="M3.752,34.985l1.5-5.593H50.884l-4.2,5.748-1.828,6.8H15.516l-.35,1.308h31.7l-3.6,5.594H0L3.326,36.447H32.667l.421-1.462ZM55.13,20.81l-4.493,7.007H4L5.866,20.81ZM56.152,9.778a11.732,11.732,0,0,1-5.143,7.007,15.594,15.594,0,0,1-8.594,2.509H18.28q-4.68,0-7.233-2.481T9.724,9.831A12.048,12.048,0,0,1,14.89,2.669,15.114,15.114,0,0,1,23.454,0H47.589a9.546,9.546,0,0,1,7.185,2.64Q57.33,5.282,56.152,9.778ZM24.221,12.447H40.257a4.809,4.809,0,0,0,2.523-.734,3.254,3.254,0,0,0,1.551-1.988,1.994,1.994,0,0,0-.344-2.143,3.1,3.1,0,0,0-2.232-.734H25.719a4.436,4.436,0,0,0-2.5.758,3.549,3.549,0,0,0-1.492,2.119,1.89,1.89,0,0,0,.412,2.041A3.038,3.038,0,0,0,24.221,12.447Z" transform="translate(108.744 0.26)"/>
      <path id="패스_19" data-name="패스 19" class="cls-1" d="M36.817,14.85H35.192l-1.406,5.333a13.283,13.283,0,0,1-5,7.268,14.466,14.466,0,0,1-8.927,2.828H13.967q-5.153,0-7.425-2.828T5.5,20.183L6.9,14.85H3.381L5.286,7.9H41.3ZM45.427,41a11.292,11.292,0,0,1-4.72,6.433,14.083,14.083,0,0,1-8.087,2.457H8.277q-4.468,0-6.745-2.433t-1.17-6.4a11.582,11.582,0,0,1,4.693-6.617,13.555,13.555,0,0,1,8.052-2.587H37.451q4.418,0,6.723,2.587A6.712,6.712,0,0,1,45.427,41Zm-5.5-41L35.64,6.694H8.828L10.64,0ZM14.258,43.088H30.4a5.492,5.492,0,0,0,2.5-.6,2.479,2.479,0,0,0,1.432-1.544,1.468,1.468,0,0,0-.518-1.675,3.786,3.786,0,0,0-2.255-.574H15.426a4.987,4.987,0,0,0-2.455.6,2.573,2.573,0,0,0-1.346,1.646,1.3,1.3,0,0,0,.506,1.593A3.74,3.74,0,0,0,14.258,43.088Zm4.953-19.242a3.4,3.4,0,0,0,2.655-1.071,7.747,7.747,0,0,0,1.545-3.219l1.262-4.705H17.419l-1.261,4.705a5.669,5.669,0,0,0-.18,3.243c.262.7.959,1.047,2.08,1.047Zm16.831,6.482,7.8-29.019H56.454L53.147,6.694,52.8,8h5.783l-3.379,7.321H50.84l-.912,3.4h5.784l-3.379,7.321H47.97l-1.152,4.286Z" transform="translate(178.322 0)"/>
      <path id="패스_20" data-name="패스 20" class="cls-1" d="M11.011,47.532H7.91q-4.629,0-6.683-3.06t-.673-8.18L3.659,24.68A14.581,14.581,0,0,1,4.874,21.6a10.815,10.815,0,0,1,1.32-2.041l.554-.574h8.414L10.921,34.772q-.47,1.781-.629,2.693a2.782,2.782,0,0,0,.116,1.569,1.074,1.074,0,0,0,1.113.656,2.165,2.165,0,0,0,1.957-1.177,15.8,15.8,0,0,0,1.388-3.74l4.242-15.791h8.409a3.311,3.311,0,0,1,.274.652,8.608,8.608,0,0,1,.2,1.911,10.787,10.787,0,0,1-.4,3.137L24.421,36.292a15.544,15.544,0,0,1-5.052,8.18A12.7,12.7,0,0,1,11.011,47.532ZM33.59,9.411l-4.755,8.108H4.439L6.617,9.411ZM33.484,0l-4.75,8.1H9.069L11.246,0ZM23.312,49.361,36.535,0H47.05L41.884,19.241h1.737L48.787,0H61.141L57.888,5.386,46.773,46.75,35.558,49.361,41.4,27.61H39.668L34.521,46.75Z" transform="translate(229.526 1.308)"/>
      <g id="그룹_7" data-name="그룹 7" transform="translate(301.124 0.515)">
        <path id="패스_21" data-name="패스 21" class="cls-1" d="M2.407,29.167,10.189.265H41.87l-4.51,7.86H20.1L16.531,21.306H36.513L32,29.167ZM0,48.3,4.457,31.614H18.079l-3.023,5.364-1.009,3.614H48.025l-4.433,7.7ZM36.45,35.331,41,18.33H29.787l2.12-7.968H43.123L45.911,0H58.735L55.429,5.472,47.4,35.331Z" transform="translate(0 0)"/>
        <path id="패스_22" data-name="패스 22" class="cls-1" d="M46.553.794,41.575,9.3H31.961l-6.583,12.22h8.169L33.6,47.232H22.224l.171-20.3-10.963,20.3H0L19.941,9.3H12.088l2.306-8.5Zm-9.209,49.36,3.781-14.24H35.14l.109-9.562h8.495l1.3-4.889h-8.6l.212-9.562H47.61L50.78,0H63.6l-3.31,5.472-11.3,42.078Z" transform="translate(47.592 0)"/>
        <path id="패스_23" data-name="패스 23" class="cls-1" d="M0,47.232l7.493-28H25.709l2.765-10.2H10.258L12.472.794H44.044l-3.616,5.37L34.712,27.47H16.5L13.379,39H34.692l-4.777,8.233Zm33.819,2.922L47.255,0H60.078l-3.31,5.472L53.5,17.692h5.876l-4,8.768H51.1L45.468,47.551Z" transform="translate(101.867 0)"/>
        <path id="패스_24" data-name="패스 24" class="cls-1" d="M13.34,37.091l-2.711,10.2H0l2.711-10.2ZM23.6,0,13.646,33.531h-9.3L12.379,0Z" transform="translate(157.974 0.049)"/>
      </g>
    </g>
    <g id="그룹_9" data-name="그룹 9" transform="translate(1358.298 693.827)">
      <path id="패스_25" data-name="패스 25" class="cls-1" d="M29.413,38.22l-4.341,8.387H0L1.864,38.22H3.813L9.636,11.743h9.745L13.558,38.22h1.9l5.823-26.477H32.866l-3.049,5.4L25.2,38.22ZM37.3.785,32.955,9.175H8.515L10.379.785ZM28.493,28.1l1.993-9.175h3.9L38.53,0H49.064L38.8,46.869l-11.1,2.621,4.7-21.39Zm10.839,21.39L50.171,0H62.55l-3,5.4-9.115,41.47Z" transform="translate(0 0.734)"/>
      <path id="패스_26" data-name="패스 26" class="cls-1" d="M.368,34.759l4.71-21.494a16.188,16.188,0,0,1,6.012-9.622A16.132,16.132,0,0,1,21.16,0h5.057a10.516,10.516,0,0,1,8.5,3.643q3.072,3.645,1.757,9.622l-4.71,21.494a16.247,16.247,0,0,1-5.987,9.622,16.1,16.1,0,0,1-10.1,3.643H10.622a10.46,10.46,0,0,1-8.446-3.643Q-.9,40.736.368,34.759Zm15.35-21.494-4.71,21.494a5,5,0,0,0,.407,3.959,3.328,3.328,0,0,0,2.969,1.441h.948a5.243,5.243,0,0,0,3.618-1.469,7.3,7.3,0,0,0,2.171-3.932l4.71-21.494a5.013,5.013,0,0,0-.408-3.959,3.323,3.323,0,0,0-2.967-1.441h-.948a5.25,5.25,0,0,0-3.619,1.469A7.3,7.3,0,0,0,15.718,13.265Zm16.445,36.96L43.055.734H55.961l-3.051,5.4L43.795,47.6Z" transform="translate(56.63 0)"/>
      <path id="패스_27" data-name="패스 27" class="cls-1" d="M3.382,32.557l1.381-6.133H49.905L46.859,31.77,45.048,40.16H14.918l-.367,1.625h32.5l-3.595,6.133H0L3.071,34.13H33.2l.309-1.573Zm.141-8.022L8.87.262H40.107L36.22,7.235H19.206l-.377,1.731H38.212l-3.939,6.971H17.258l-.367,1.625H37.066l-3.886,6.973Zm34.04.42L43.081,0H55.723L52.673,5.4l-.749,3.409h5.793L54.272,17.2H50.059l-1.7,7.758Z" transform="translate(107.116 0.734)"/>
      <path id="패스_28" data-name="패스 28" class="cls-1" d="M0,47.918,4.318,28.311H49.458l-2.986,5.3L43.3,47.918ZM18,5.557,17.73,6.71h9.85L28.991.262H40.844l-2.725,5.3-4.508,20.5H3.219L8.87.262H20.723Zm6.94,13.212,1.052-4.876H16.139l-1.05,4.876Zm8.692,21.808,1.055-4.928H14.037l-1.055,4.928Zm3.627-14.1L43.082,0H55.724L52.673,5.4l-.828,3.67h5.793l-3.391,8.389H50.034l-1.978,9.016Z" transform="translate(159.262 0.734)"/>
    </g>
  </g>
</svg>
