<svg xmlns="http://www.w3.org/2000/svg" width="912" height="577" viewBox="0 0 912 577">
  <defs>
    <style>
      .cls-1 {
        fill: #585858;
      }
    </style>
  </defs>
  <path id="HighresScreenshot00049" class="cls-1" d="M1550.974-393.36q8.093.264,16.2,0c57.7-1.842,404.884-8.89,429.1,87.557,26.415,105.215,17.271,205.493,17.271,205.493S2010.676,19.512,1990.267,83.6c0,0-8.409,56.841-85.248,73.774s-232.036,25.394-345.947,25.394-269.1-8.467-345.947-25.394S1127.877,83.6,1127.877,83.6c-20.414-64.092-23.278-183.915-23.278-183.915s-9.144-100.278,17.272-205.493C1146.085-402.25,1493.278-395.2,1550.974-393.36Z" transform="translate(-1103.069 394.229)"/>
</svg>
